<?xml version="1.0" encoding="UTF-8"?>
<svg width="278px" height="229px" viewBox="0 0 278 229" version="1.1" xmlns="http://www.w3.org/2000/svg" xmlns:xlink="http://www.w3.org/1999/xlink">
    <title>Illustration</title>
    <g id="UI-Screens" stroke="none" stroke-width="1" fill="none" fill-rule="evenodd">
        <g id="Onboarding" transform="translate(-68, -330)">
            <g id="Group" transform="translate(70, 284)">
                <g transform="translate(0, 47.67)" fill="#303030" id="Vector">
                    <g transform="translate(58.67, 24.31)">
                        <path d="M43.0038,-0.54235 L48.0418,12.4485 L48.2166,12.8995 L48.0951,13.3677 L45.934,21.69 L49.4606,31.2211 L49.5955,31.5855 L49.5364,31.9696 L46.3587,52.6403 L46.3131,52.9366 L46.1572,53.1926 L44.8761,52.4124 L44.875,52.412 L46.1572,53.1926 L37.275,67.7783 L36.9164,68.3672 L36.2359,68.4784 L22.3158,70.7545 L21.879,70.826 L21.4734,70.6488 L8.2508,64.8733 L7.84315,64.6953 L7.59847,64.3238 L-1.25273,50.8839 L1.25273,49.2339 L9.859,62.302 L22.268,67.722 L35.071,65.628 L43.439,51.887 L46.512,31.899 L42.9578,22.2906 L42.7944,21.849 L42.9127,21.3933 L45.069,13.082 L40.2068,0.54235 L43.0038,-0.54235 Z" id="Vector-border"></path>
                    </g>
                    <g transform="translate(85.55, 51.07)">
                        <path d="M1.32173,-0.70925 L7.55323,10.9035 L7.72683,11.2271 L7.73139,11.5942 L6.232,11.612 L6.231,11.612 L7.73139,11.5942 L7.77789,15.3412 L7.78737,16.1054 L7.17479,16.5623 L3.68701,19.1635 L1.89344,16.7587 L4.768,14.614 L4.736,11.999 L-1.32173,0.70925 L1.32173,-0.70925 Z" id="Vector-border"></path>
                    </g>
                    <g transform="translate(40.64, 0)">
                        <path d="M-1.53304,26.5003 L-1.49512,26.0312 L-0.68907,16.0596 L-0.60565,15.0276 L0.38885,14.7397 L12.836,11.135 L22.9012,3.26237 L23.1369,3.07797 L23.4254,2.99816 L39.4847,-1.44567 L39.698,-1.50469 L39.9192,-1.4996 L52.7077,-1.2054 L53.6686,-1.18329 L54.0501,-0.30106 L59.5995,12.535 L59.7674,12.9233 L59.7076,13.3422 L58.5915,21.1614 L58.478,21.9571 L57.7526,22.3033 L39.3216,31.098 L38.9224,31.2885 L38.4837,31.2319 L18.604,28.667 L14.2294,38.8818 L11.4717,37.7007 L16.2926,26.4441 L16.7389,25.4019 L17.8633,25.5469 L38.428,28.199 L55.735,19.941 L56.677,13.337 L51.677,1.771 L40.071,1.504 L24.514,5.809 L14.4568,13.6768 L13.532,12.494 L14.4568,13.6768 L14.2284,13.8555 L13.9498,13.9362 L2.218,17.333 L1.533,25.804 L8.51975,37.7995 L5.9274,39.3094 L-1.29618,26.9069 L-1.53304,26.5003 Z" id="Vector-border"></path>
                    </g>
                    <g transform="translate(55.42, 16.79)">
                        <polygon id="Vector-border" points="3.62337 4.57366 1.37569 -0.5979 -1.37569 0.59791 0.872 5.76948"></polygon>
                    </g>
                    <g transform="translate(45.19, 42.79)">
                        <path d="M-1.44109,4.73621 L-1.73674,3.71265 L-0.86767,3.09637 L5.22432,-1.22358 L6.95965,1.22358 L1.737,4.926 L5.301,17.267 L10.4941,18.7149 L9.68853,21.6047 L3.68955,19.9325 L2.88346,19.7078 L2.65124,18.9038 L-1.44109,4.73621 Z" id="Vector-border"></path>
                    </g>
                    <g transform="translate(36.57, 85.95)">
                        <path d="M8.57243,-1.33609 L9.93606,1.33609 L1.662,5.557 L3.992,19.347 L29.303,27.356 L46.329,23.597 L52.931,19.464 L50.7459,11.4825 L53.6394,10.6902 L56.1196,19.7482 L56.4142,20.8239 L55.4688,21.4157 L47.7027,26.2776 L46.907,25.007 L46.907,25.008 L47.7027,26.2776 L47.4831,26.4151 L47.2302,26.4709 L29.5588,30.3728 L29.1661,30.4595 L28.7828,30.3382 L2.21367,21.9306 L1.33989,21.6541 L1.18718,20.7504 L-1.47903,4.97247 L-1.66248,3.88689 L-0.68182,3.38645 L8.57243,-1.33609 Z" id="Vector-border"></path>
                    </g>
                    <g transform="translate(51.74, 67.81)">
                        <path d="M1.52614,-0.12073 L3.43279,23.492 L3.44624,23.6586 L3.42268,23.8241 L1.941,23.613 L1.937,23.613 L3.42268,23.8241 L1.48503,37.4343 L-1.48503,37.0115 L0.429,23.566 L-1.46413,0.12073 L1.52614,-0.12073 Z" id="Vector-border"></path>
                    </g>
                    <g transform="translate(14.82, 70.08)">
                        <path d="M30.1034,-1.46072 L30.7855,1.46072 L7.509,6.895 L1.732,23.112 L15.8316,37.1669 L13.7137,39.2917 L-1.05894,24.5667 L-1.73186,23.8959 L-1.41301,23.0009 L4.958,5.11722 L5.23274,4.34602 L6.02997,4.15988 L30.1034,-1.46072 Z" id="Vector-border"></path>
                    </g>
                    <g transform="translate(83.91, 118.72)">
                        <path d="M9.76173,21.3588 L9.77516,21.5904 L10.9687,42.1838 L7.97377,42.3574 L6.793,21.996 L-1.40131,0.5351 L1.40131,-0.5351 L9.67898,21.1421 L9.76173,21.3588 Z" id="Vector-border"></path>
                    </g>
                    <g transform="translate(70.16, 122.19)">
                        <path d="M3.66562,47.59 L0.67474,47.3562 L2.842,19.618 L-1.46396,0.32686 L1.46396,-0.32684 L5.81981,19.18261 L5.86882,19.4021 L5.85129,19.6264 L3.66562,47.59 Z" id="Vector-border"></path>
                    </g>
                    <g transform="translate(98.34, 101.76)">
                        <path d="M0.47126,-1.42405 L20.73141,5.28039 L21.2667,5.45752 L21.5527,5.94337 L36.7594,31.7702 L36.9523,32.0978 L36.9659,32.4777 L38.325,70.531 L46.3433,108.244 L43.4089,108.868 L35.3637,71.0261 L35.3366,70.8983 L35.3319,70.7677 L33.981,32.963 L19.253,7.951 L-0.47124,1.42405 L0.47126,-1.42405 Z" id="Vector-border"></path>
                    </g>
                    <g transform="translate(0, 105.7)">
                        <path d="M16.4152,-1.05103 L18.5556,1.05103 L6.141,13.691 L1.524,63.768 L18.8969,112.09 L16.0739,113.105 L-1.41154,64.4708 L-1.52425,64.1573 L-1.49366,63.8256 L3.20321,12.8841 L4.697,13.022 L3.20321,12.8841 L3.25227,12.352 L3.62667,11.9708 L16.4152,-1.05103 Z" id="Vector-border"></path>
                    </g>
                    <g transform="translate(36.57, 142.08)">
                        <path d="M-1.53275,26.1153 L-1.45562,25.8053 L5.0549,-0.36216 L7.96615,0.36216 L1.532,26.22 L9.42902,70.6686 L6.47527,71.1933 L-1.47688,26.4299 L-1.53275,26.1153 Z" id="Vector-border"></path>
                    </g>
                    <g transform="translate(110.88, 142.08)">
                        <path d="M1.72,42.957 L6.52381,77.7399 L3.552,78.1503 L-1.26888,43.2344 L-1.28663,43.1059 L-1.28204,42.9763 L-0.123,10.23 L-1.48635,0.20188 L1.48635,-0.20188 L2.86597,9.95546 L2.8832,10.0824 L2.87868,10.2104 L1.72,42.957 Z" id="Vector-border"></path>
                    </g>
                    <g transform="translate(111.86, 190.64)">
                        <polygon id="Vector-border" points="12.7072 22.3288 1.34477 -0.66453 -1.34477 0.66453 10.0176 23.6579"></polygon>
                    </g>
                    <g transform="translate(91.35, 40.12)">
                        <polygon id="Vector-border" points="-1.18432 0.92054 2.69099 5.9063 5.05963 4.06522 1.18432 -0.92054"></polygon>
                    </g>
                    <g transform="translate(74.9, 41.05)">
                        <polygon id="Vector-border" points="-1.18432 0.92054 2.69099 5.9063 5.05963 4.06522 1.18432 -0.92054"></polygon>
                    </g>
                    <g transform="translate(78.23, 76.23)">
                        <path d="M14.8688,3.5683 L14.756,4.60783 L13.7416,4.86158 L4.89037,7.07574 L4.16234,4.16542 L11.904,2.229 L1.704,1.587 L1.49081,3.51031 L-1.49081,3.17865 L-1.11878,-0.16583 L-0.96072,-1.58685 L0.46625,-1.49704 L13.7508,-0.66091 L15.3172,-0.56232 L15.1478,0.99801 L14.8688,3.5683 Z" id="Vector-border"></path>
                    </g>
                </g>
                <g transform="translate(149.56, 59.52)" fill="#303030" id="Vector">
                    <g transform="translate(30.24, 12.03)">
                        <path d="M22.0883,-1.51683 L22.5105,-1.4986 L42.6001,-0.63151 L43.0495,-0.61212 L43.4141,-0.34863 L56.3111,8.97257 L56.5595,9.15208 L56.7175,9.41462 L63.5691,20.7952 L63.9097,21.3609 L63.7224,21.9942 L60.1416,34.1025 L57.2648,33.2517 L60.658,21.777 L54.305,11.224 L42.021,2.346 L22.803,1.516 L7.62,9.932 L1.58,21.697 L4.92177,36.8852 L4.96563,37.0846 L4.95459,37.2884 L3.945,55.941 L8.585,72.095 L19.533,86.045 L36.189,86.045 L41.4746,79.4674 L43.8132,81.3465 L38.0778,88.4845 L37.6274,89.045 L18.803,89.045 L18.803,87.544 L18.803,89.045 L18.0734,89.045 L17.623,88.471 L6.04353,73.715 L5.86272,73.4846 L5.78187,73.2031 L0.992,56.5271 L0.92225,56.2843 L0.9359,56.032 L2.432,56.113 L2.434,56.113 L0.9359,56.032 L1.947,37.329 L-1.46498,21.8136 L-1.58093,21.2865 L-1.33439,20.8063 L5.16063,8.15609 L5.36894,7.75037 L5.76784,7.52927 L21.7186,-1.31195 L22.0883,-1.51683 Z" id="Vector-border"></path>
                    </g>
                    <g transform="translate(36.73, 30.01)">
                        <path d="M40.174,11.258 L27.621,1.5 L11.017,1.5 L0.77193,7.64993 L-0.77193,5.07768 L9.83092,-1.28613 L10.1873,-1.5 L28.6492,-1.5 L29.0553,-1.18431 L42.4019,9.18979 L42.7879,9.48983 L42.923,9.95972 L45.323,18.311 L49.3781,18.1195 L50.2518,18.0782 L50.718,18.8182 L55.6939,26.7149 L56.0138,27.2225 L55.8953,27.8107 L52.7021,43.6661 L52.5008,44.6657 L51.4971,44.8462 L45.1261,45.992 L44.5951,43.0394 L49.962,42.074 L52.835,27.807 L48.645,21.157 L44.2804,21.3639 L43.0956,21.42 L42.7679,20.28 L40.174,11.258 Z" id="Vector-border"></path>
                    </g>
                    <g transform="translate(47.54, 82.13)">
                        <path d="M15.2469,-1.668 L15.0216,0.18137 L14.5256,4.2536 L13.036,4.071 L13.3922,5.52945 L3.81244,7.86749 L3.10113,4.95304 L11.672,2.861 L11.818,1.668 L4.966,2.312 L0.48237,3.83578 L-0.48236,0.99513 L4.16801,-0.5842 L4.33462,-0.64078 L4.50979,-0.65727 L13.392,-1.4934 L13.5326,6.66133815e-16 L13.392,-1.4934 L15.2469,-1.668 Z M13.0366,4.07223 L14.5256,4.2536 L14.4001,5.28347 L13.3922,5.52945 L13.0366,4.07223 Z" id="Vector-border"></path>
                    </g>
                    <g transform="translate(49.74, 62.41)">
                        <path d="M1.02416,-0.36048 L3.93624,0.36048 L1.661,9.551 L5.61197,13.4571 L3.50277,15.5904 L-1.0546,11.0847 L0,10.018 L-0.001,10.018 L-1.0546,11.0847 L-1.66095,10.4852 L-1.45604,9.6575 L1.02416,-0.36048 Z" id="Vector-border"></path>
                    </g>
                    <g transform="translate(81.53, 80.58)">
                        <path d="M-0.68853,33.2617 L-0.75278,32.2724 L-1.49685,20.8144 L0.003,20.717 L-1.49359,20.5787 L0.42857,-0.13858 L3.41574,0.13858 L1.504,20.739 L2.176,31.087 L33.4994,42.0941 L33.9463,42.2511 L34.222,42.6363 L43.7398,55.9369 L44.0162,56.3232 L44.0199,56.7983 L44.4074,107.353 L42.903,107.364 L44.3541,107.761 L37.4715,132.875 L34.5782,132.082 L41.405,107.167 L41.023,57.294 L32.058,44.767 L0.24683,33.5904 L-0.68853,33.2617 Z M44.4074,107.353 L44.409,107.56 L44.3541,107.761 L42.9074,107.364 L44.4074,107.353 Z M-1.49359,20.5787 L0,20.7172 L-1.49685,20.8144 L-1.50451,20.6964 L-1.49359,20.5787 Z" id="Vector-border"></path>
                    </g>
                    <g transform="translate(59.83, 51.98)">
                        <path d="M3.33034,-1.75818 L4.15105,-1.32966 L3.456,-0.001 L3.457,0 L4.15105,-1.32966 L8.92542,1.16322 L7.53689,3.82254 L3.583,1.758 L0.87738,3.70951 L-0.87738,1.27624 L2.5794,-1.21664 L3.33034,-1.75818 Z" id="Vector-border"></path>
                    </g>
                    <g transform="translate(39.91, 51.98)">
                        <path d="M3.33034,-1.75818 L4.15105,-1.32966 L3.456,-0.001 L3.457,0 L4.15105,-1.32966 L8.92542,1.16322 L7.53689,3.82254 L3.583,1.758 L0.87738,3.70951 L-0.87738,1.27624 L2.5794,-1.21664 L3.33034,-1.75818 Z" id="Vector-border"></path>
                    </g>
                    <g transform="translate(74.6, 0)">
                        <path d="M32.0144,-1.50767 L32.4656,-1.0293 L46.6338,13.9899 L46.9655,14.3416 L47.0295,14.8208 L50.5173,40.9573 L50.5483,41.1897 L50.5069,41.4204 L49.032,41.155 L49.029,41.155 L50.5069,41.4204 L45.004,72.1246 L44.9711,72.3082 L44.8942,72.4782 L35.7949,92.5916 L35.1612,93.9925 L33.7764,93.3243 L21.4219,87.3631 L20.5738,86.9538 L20.5738,62.5542 L23.5738,62.5542 L23.573,85.07 L33.695,89.954 L42.083,71.411 L47.512,41.124 L44.119,15.696 L30.734,1.507 L12.241,1.726 L0.8996,10.2273 L-0.8996,7.82672 L10.8348,-0.96804 L11.2268,-1.26185 L11.7167,-1.26764 L31.3568,-1.4999 L32.0144,-1.50767 Z" id="Vector-border"></path>
                    </g>
                    <g transform="translate(0, 105.57)">
                        <path d="M58.4184,33.3405 L58.4259,33.258 L58.4424,33.1768 L62.737,12.064 L62.737,4.528 L49.508,1.726 L47.2866,7.13513 L47.0565,7.69526 L46.502,7.93863 L17.31,20.75 L10.723,33.213 L12.4581,74.8168 L12.4692,75.0843 L12.3872,75.3391 L1.4278,109.372 L-1.4278,108.453 L9.449,74.674 L7.70905,32.9344 L7.69216,32.5294 L7.8816,32.171 L14.9037,18.886 L15.1481,18.4236 L15.627,18.2134 L44.741,5.434 L47.2089,-0.57003 L47.6841,-1.72657 L48.9073,-1.46743 L64.548,1.84609 L65.7372,2.09801 L65.7372,12.3677 L65.7071,12.5157 L61.399,33.692 L58.889,61.397 L60.3707,84.5849 L60.3767,84.6787 L60.3709,84.7724 L58.8828,109.004 L55.8884,108.821 L57.37,84.678 L55.8886,61.4731 L55.8813,61.3575 L55.8917,61.2422 L58.4184,33.3405 L59.916,33.476 L58.4184,33.3405 Z" id="Vector-border"></path>
                    </g>
                    <g transform="translate(64.23, 102.9)">
                        <polygon id="Vector-border" points="16.8096 -1.41777 -0.48982 4.55896 0.48983 7.3945 17.78921 1.41777"></polygon>
                    </g>
                    <g transform="translate(45.9, 112.13)">
                        <path d="M0.44178,-1.43347 L18.357,4.088 L35.9785,-0.82551 L36.7844,2.06421 L18.7409,7.09642 L18.3169,7.21468 L17.8962,7.08503 L18.337,5.653 L18.337,5.652 L17.8962,7.08503 L-0.44178,1.43347 L0.44178,-1.43347 Z" id="Vector-border"></path>
                    </g>
                    <g transform="translate(89.14, 178.22)">
                        <polygon id="Vector-border" points="1.48345 33.3419 6.44385 0.22218 3.47694 -0.22218 -1.48345 32.8975"></polygon>
                    </g>
                    <g transform="translate(74.79, 136.26)">
                        <path d="M10.1727,20.502 L9.5411,20.7908 L8.91225,20.4961 L-0.63651,16.0214 L-1.61367,15.5634 L-1.49014,14.4914 L0.1995,-0.17171 L3.17978,0.17171 L1.613,13.762 L9.556,17.484 L18.07,13.591 L16.7526,0.58477 L19.7373,0.28234 L21.1634,14.357 L19.671,14.507 L21.1634,14.357 L21.2717,15.4256 L20.295,15.8724 L10.1727,20.502 Z" id="Vector-border"></path>
                    </g>
                </g>
                <g transform="translate(162.89, 34.71)"></g>
            </g>
        </g>
    </g>
</svg>