<?xml version="1.0" encoding="UTF-8"?>
<svg width="26px" height="26px" viewBox="0 0 26 26" version="1.1" xmlns="http://www.w3.org/2000/svg" xmlns:xlink="http://www.w3.org/1999/xlink">
    <title>User / 26x26</title>
    <g id="Icons" stroke="none" stroke-width="1" fill="none" fill-rule="evenodd">
        <g transform="translate(-218, -256)" id="26x26-Icon">
            <g transform="translate(50, 170)">
                <g id="User-/-26x26" transform="translate(168, 86)">
                    <polygon id="Background" points="0 0 26 0 26 26 0 26"></polygon>
                    <g id="Vector" transform="translate(4.33, 16.25)" fill="#303030">
                        <path d="M13,-0.8 C14.3614,-0.8 15.6671,-0.25917 16.6298,0.70352 C17.5925,1.66621 18.1333,2.97189 18.1333,4.33333 L18.1333,6.5 L18.127068,6.60035073 C18.0777118,6.99481373 17.7412077,7.3 17.3333,7.3 C16.8915,7.3 16.5333,6.94183 16.5333,6.5 L16.5333,4.33333 C16.5333,3.39624 16.1611,2.49752 15.4984,1.83489 L15.3413912,1.68716716 C14.6973112,1.11719195 13.8650154,0.8 13,0.8 L4.33333,0.8 L4.11784958,0.806570892 C3.25937237,0.858988935 2.44654846,1.22323154 1.83489,1.83489 C1.17226,2.49752 0.8,3.39624 0.8,4.33333 L0.8,6.5 L0.7937669,6.60035073 C0.744401893,6.99481373 0.407843077,7.3 1.11022302e-16,7.3 C-0.44183,7.3 -0.8,6.94183 -0.8,6.5 L-0.8,4.33333 L-0.793691194,4.07878356 C-0.730748359,2.8100198 -0.199001875,1.60604187 0.70352,0.70352 C1.6662,-0.25917 2.97189,-0.8 4.33333,-0.8 L13,-0.8 Z" id="Vector-border"></path>
                    </g>
                    <g id="Vector" transform="translate(8.67, 3.25)" fill="#303030">
                        <path d="M4.11633691,9.46216662 C1.38192103,9.34845707 -0.8,7.0957059 -0.8,4.33333 L-0.795496618,4.11633691 C-0.681787081,1.38192103 1.57096385,-0.8 4.33333,-0.8 L4.55032384,-0.795496618 C7.28474897,-0.681787081 9.46667,1.57096385 9.46667,4.33333 L9.46216662,4.55032384 C9.34845707,7.28474897 7.0957059,9.46667 4.33333,9.46667 Z M4.52719449,7.86144181 C6.3884443,7.76079747 7.86667,6.219693 7.86667,4.33333 L7.86144181,4.13946647 C7.76079747,2.2782257 6.219693,0.8 4.33333,0.8 L4.13946647,0.805228194 C2.2782257,0.905872522 0.8,2.44697667 0.8,4.33333 L0.805228194,4.52719449 C0.905872522,6.3884443 2.44697667,7.86667 4.33333,7.86667 Z" id="Vector-border"></path>
                    </g>
                </g>
            </g>
        </g>
    </g>
</svg>