<?xml version="1.0" encoding="UTF-8"?>
<svg width="26px" height="26px" viewBox="0 0 26 26" version="1.1" xmlns="http://www.w3.org/2000/svg" xmlns:xlink="http://www.w3.org/1999/xlink">
    <title>Search / 26x26</title>
    <g id="Icons" stroke="none" stroke-width="1" fill="none" fill-rule="evenodd">
        <g transform="translate(-162, -424)" id="26x26-Icon">
            <g transform="translate(50, 170)">
                <g id="Search-/-26x26" transform="translate(112, 254)">
                    <polygon id="Background" points="0 0 26 0 26 26 0 26"></polygon>
                    <g id="Vector" transform="translate(3.25, 3.25)" fill="#303030">
                        <path d="M8.66667,0.8 C13.0113,0.8 16.5333,4.32203 16.5333,8.66667 C16.5333,8.66667 18.1333,8.66667 18.1333,8.66667 C18.1333,3.43837 13.895,-0.8 8.66667,-0.8 C8.66667,-0.8 8.66667,0.8 8.66667,0.8 Z M0.8,8.66667 C0.8,4.32203 4.32203,0.8 8.66667,0.8 C8.66667,0.8 8.66667,-0.8 8.66667,-0.8 C3.43837,-0.8 -0.8,3.43837 -0.8,8.66667 C-0.8,8.66667 0.8,8.66667 0.8,8.66667 Z M8.66667,16.5333 C4.32203,16.5333 0.8,13.0113 0.8,8.66667 C0.8,8.66667 -0.8,8.66667 -0.8,8.66667 C-0.8,13.895 3.43837,18.1333 8.66667,18.1333 C8.66667,18.1333 8.66667,16.5333 8.66667,16.5333 Z M16.5333,8.66667 C16.5333,13.0113 13.0113,16.5333 8.66667,16.5333 C8.66667,16.5333 8.66667,18.1333 8.66667,18.1333 C13.895,18.1333 18.1333,13.895 18.1333,8.66667 C18.1333,8.66667 16.5333,8.66667 16.5333,8.66667 Z" id="Vector-border"></path>
                    </g>
                    <g id="Vector" transform="translate(18.04, 18.04)" fill="#303030">
                        <path d="M-0.56568,0.56568 L-0.643139504,0.475963576 C-0.875518017,0.162777851 -0.849698182,-0.281661818 -0.56568,-0.56568 C-0.25326,-0.8781 0.25327,-0.8781 0.56569,-0.56568 L5.27818,4.14681 C5.5906,4.45923 5.5906,4.96577 5.27818,5.27818 C4.96577,5.5906 4.45923,5.5906 4.14681,5.27818 L-0.56568,0.56568 Z" id="Vector-border"></path>
                    </g>
                </g>
            </g>
        </g>
    </g>
</svg>