<?xml version="1.0" encoding="UTF-8"?>
<svg width="26px" height="26px" viewBox="0 0 26 26" version="1.1" xmlns="http://www.w3.org/2000/svg" xmlns:xlink="http://www.w3.org/1999/xlink">
    <title>User / 26x26</title>
    <g id="Icons" stroke="none" stroke-width="1" fill="none" fill-rule="evenodd">
        <g transform="translate(-218, -256)" id="26x26-Icon">
            <g transform="translate(50, 170)">
                <g id="User-/-26x26" transform="translate(168, 86)">
                    <polygon id="Background" points="0 0 26 0 26 26 0 26"></polygon>
                    <g id="Vector" transform="translate(4.33, 16.25)" fill="#D8D8D8">
                        <path d="M0.8,4.33333 L0.8,6.5 L0.7937669,6.60035073 C0.744401893,6.99481373 0.407843077,7.3 -9.99200722e-16,7.3 C-0.44183,7.3 -0.8,6.94183 -0.8,6.5 L-0.8,4.33333 L0.8,4.33333 Z M1.68716716,1.99190557 C1.11719195,2.63601166 0.8,3.46832385 0.8,4.33333 L-0.8,4.33333 C-0.8,2.97189 -0.25917,1.66621 0.70352,0.70352 L0.887972017,0.527988342 C1.82962902,-0.324661133 3.05698,-0.8 4.33333,-0.8 L4.33333,0.8 C3.39624,0.8 2.49752,1.17226 1.83489,1.83489 Z M13,0.8 L4.33333,0.8 L4.33333,-0.8 L13,-0.8 C14.3614,-0.8 15.6671,-0.25917 16.6298,0.70352 L16.8053331,0.887973665 C17.6579875,1.82963781 18.1333,3.05698 18.1333,4.33333 L16.5333,4.33333 C16.5333,3.39624 16.1611,2.49752 15.4984,1.83489 C14.8358,1.17226 13.9371,0.8 13,0.8 Z M16.5333,4.33333 L18.1333,4.33333 L18.1333,6.5 L18.127068,6.60035073 C18.0777118,6.99481373 17.7412077,7.3 17.3333,7.3 C16.8915,7.3 16.5333,6.94183 16.5333,6.5 L16.5333,4.33333 Z" id="Vector-border"></path>
                    </g>
                    <g id="Vector" transform="translate(8.67, 3.25)" fill="#D8D8D8">
                        <path d="M4.13946647,0.805228194 C2.2782257,0.905872522 0.8,2.44697667 0.8,4.33333 L-0.8,4.33333 C-0.8,1.49827 1.49827,-0.8 4.33333,-0.8 L4.55032384,-0.795496618 C7.28474897,-0.681787081 9.46667,1.57096385 9.46667,4.33333 L7.86667,4.33333 C7.86667,2.38193 6.28474,0.8 4.33333,0.8 Z M4.11633691,9.46216662 C1.38192103,9.34845707 -0.8,7.0957059 -0.8,4.33333 L0.8,4.33333 C0.8,6.28474 2.38193,7.86667 4.33333,7.86667 L4.52719449,7.86144181 C6.3884443,7.76079747 7.86667,6.219693 7.86667,4.33333 L9.46667,4.33333 C9.46667,7.1684 7.1684,9.46667 4.33333,9.46667 Z" id="Vector-border"></path>
                    </g>
                </g>
            </g>
        </g>
    </g>
</svg>