<?xml version="1.0" encoding="UTF-8"?>
<svg width="26px" height="26px" viewBox="0 0 26 26" version="1.1" xmlns="http://www.w3.org/2000/svg" xmlns:xlink="http://www.w3.org/1999/xlink">
    <title>Phone Call / 26x26</title>
    <g id="Icons" stroke="none" stroke-width="1" fill="none" fill-rule="evenodd">
        <g transform="translate(-162, -256)" id="26x26-Icon">
            <g transform="translate(50, 170)">
                <g id="Phone-Call-/-26x26" transform="translate(112, 86)">
                    <polygon id="Background" points="0 0 26 0 26 26 0 26"></polygon>
                    <g id="Vector" transform="translate(2, 2)" fill="#303030">
                        <path d="M5.02489,0.20536 L5.22087086,0.21077888 C5.76217614,0.24476752 6.28226286,0.43474208 6.71803214,0.75765232 L6.87737,0.88493 C7.3945,1.32966 7.73227,1.94726 7.82773,2.62261 L7.035,2.734 L7.07164033,2.72981646 C7.45583509,2.67914303 7.82873,2.62996 7.82873,2.62996 C7.92823833,3.38445167 8.09861472,4.1275475 8.33740546,4.84943269 L8.48819,5.27813 C8.67727,5.78114 8.7182,6.32781 8.60611,6.85337 L8.55718779,7.0483174 C8.42709484,7.49795516 8.18639875,7.9090925 7.85578,8.24343 L7.80049718,8.18876236 C7.76373386,8.15240814 7.71065998,8.09992486 7.64749526,8.03746303 L7.547,7.938 L7.48472434,7.87650341 L7.43394831,7.82629241 L7.411,7.804 L7.23014027,7.62475233 L7.85262,8.24661 L7.01572477,9.08341768 C8.25250246,11.0706954 9.92930126,12.7474795 11.9165741,13.9842476 L12.7566,13.1442 C13.1387,12.7664 13.6211,12.506 14.1466,12.3939 C14.6722,12.2818 15.2189,12.3227 15.7219,12.5118 L16.1505972,12.6625801 C16.8724583,12.9013972 17.6155,13.0718 18.37,13.1713 L18.351,13.312 L18.3429383,13.3764878 L18.339,13.402 L18.333,13.449 L18.319,13.553 L18.302,13.684 L18.289,13.784 L18.287,13.795 L18.2728658,13.9077928 L18.269,13.932 L18.2821566,13.8459661 C18.3319413,13.493041 18.3772,13.1722 18.3772,13.1722 C19.0599,13.2686 19.6833,13.6124 20.129,14.1384 C20.5747,14.6644 20.8115,15.3359 20.7944,16.0251 L20.7946,19.0181 C20.7962,19.4095 20.7161,19.7969 20.5593,20.1555 L20.4565544,20.3660912 C20.308164,20.640568 20.11482,20.88892 19.8841,21.1006 L19.7049824,21.251684 C19.458288,21.442756 19.18104,21.59178 18.8844,21.6921 C18.5136,21.8175 18.1208,21.864 17.731,21.8288 L17.2094855,21.7659652 C14.1741603,21.3601197 11.2644558,20.2854 8.69146,18.6168 C6.16945,17.0143 4.02594,14.8708 2.41939,12.3425 C0.6558,9.6202 -0.44409,6.51402 -0.78736,3.28151 L-0.78869,3.26904 C-0.82372,2.88041 -0.77753,2.48872 -0.65298,2.11892 C-0.52842,1.74912 -0.32824,1.40931 -0.06516,1.12112 L0.09937936,0.95527008 C0.3274696,0.74372 0.589508,0.571128 0.87506,0.445 L1.09249784,0.35957152 C1.386518,0.2579456 1.695902,0.205656 2.00807,0.20536 L5.02489,0.20536 Z M5.03276,1.80532 L2.00957,1.80536 C1.84149,1.80551 1.67528,1.84067 1.52153,1.90858 L1.40932109,1.96528281 C1.30035313,2.02765 1.20152,2.106715 1.11653,2.19982 L1.03670516,2.29694766 C0.986989219,2.36428422 0.944388906,2.43659641 0.909590469,2.51272047 L0.86333,2.62962 C0.80968,2.78892 0.78978,2.95763 0.80491,3.12503 C1.12201177,6.09964404 2.1365486,8.96317369 3.76603,11.4785 C3.76603,11.4785 3.73615088,11.4978559 3.68530657,11.5307931 L3.63,11.566 L3.0946,11.9135 L3.03615148,11.950593 C3.39207305,11.7244307 3.76982,11.4844 3.76982,11.4844 C5.16329765,13.6773412 6.99511993,15.556173 9.1483345,17.0040099 L9.5558,17.2704 C12.0679,18.8995 14.9201,19.9141 17.8894,20.2367 C18.0496105,20.249689 18.2152687,20.2293286 18.3718,20.1764 C18.5315,20.1224 18.6782,20.0356 18.8024,19.9216 L18.8907859,19.8316656 C18.9742375,19.7373625 19.0426,19.630375 19.0933,19.5145 L19.1377047,19.396525 C19.1758562,19.2765437 19.19515,19.15105 19.1947,19.0246 L19.1949,15.9854 L19.1895731,15.8378458 C19.1658,15.5938389 19.0683,15.3615333 18.9083,15.1727 L18.8061537,15.0661069 C18.6260611,14.8997667 18.3987,14.7911 18.1537,14.7566 C17.1358,14.6223 16.1294,14.3716 15.1607,14.0102 L15.026848,13.968284 C14.848368,13.923596 14.66144,13.92006 14.4804,13.9587 C14.254,14.007 14.0462,14.1191 13.8816,14.2819 L12.608,15.5555 L12.5142903,15.6289205 C12.2668691,15.8191469 11.9251111,15.8435222 11.6468,15.6853 L11.2539237,15.4548298 C8.78765822,13.9630037 6.741942,11.863193 5.3147,9.35316 L5.26388276,9.2461313 C5.15098037,8.95438864 5.21809444,8.61839556 5.44445,8.39204 L6.72125,7.11524 C6.88086,6.95382 6.99302,6.74602 7.0413,6.51964 L7.06237656,6.38294328 C7.0799788,6.1998204 7.05567,6.014446 6.99051,5.84111 L6.84171624,5.42190292 C6.55910347,4.58270653 6.35834714,3.71776857 6.24247,2.83918 C6.20236,2.55562 6.05686,2.28959 5.83411,2.09803 C5.61136,1.90646 5.32654,1.80243 5.03276,1.80532 Z M13.1606,3.23623 C14.2989,3.45831 15.3449,4.01499 16.165,4.83502 C16.985,5.65506 17.5417,6.70114 17.7638,7.83939 C17.8484,8.27304 17.5654,8.69317 17.1318,8.77778 C16.6981,8.86238 16.278,8.57943 16.1934,8.14578 L16.1378406,7.90017563 C15.949629,7.1699618 15.56901,6.501764 15.0336,5.96639 L14.85031,5.79371759 C14.286271,5.2932032 13.59733,4.95161 12.8542,4.80662 L12.7490631,4.77866384 C12.3759861,4.65189444 12.14465,4.2657425 12.2222,3.86823 C12.3068,3.43458 12.727,3.15162 13.1606,3.23623 Z M12.9952812,-0.799994288 L13.0957,-0.79511 C15.3163,-0.54843 17.3869,0.44596 18.9677,2.02477 C20.5485,3.60358 21.5455,5.67299 21.795,7.8932 C21.8443,8.33226 21.5284,8.72819 21.0893,8.77753 C20.6503,8.82686 20.2543,8.51092 20.205,8.07186 L20.1616629,7.74508194 C19.8961616,6.00987588 19.0831235,4.40137706 17.8371,3.15685 L17.5992527,2.92861012 C16.3086419,1.73872689 14.6695,0.989557059 12.9191,0.79511 L12.820056,0.777835735 C12.4334692,0.685221243 12.1672538,0.317020769 12.2123,-0.08833 C12.2535923,-0.459901538 12.5431136,-0.743622781 12.897238,-0.792574834 L12.9952812,-0.799994288 Z" id="Vector-border"></path>
                    </g>
                </g>
            </g>
        </g>
    </g>
</svg>