<?xml version="1.0" encoding="UTF-8"?>
<svg width="26px" height="26px" viewBox="0 0 26 26" version="1.1" xmlns="http://www.w3.org/2000/svg" xmlns:xlink="http://www.w3.org/1999/xlink">
    <title>Region / 26x26</title>
    <g id="Icons" stroke="none" stroke-width="1" fill="none" fill-rule="evenodd">
        <g transform="translate(-50, -256)" id="26x26-Icon">
            <g transform="translate(50, 170)">
                <g id="Region-/-26x26" transform="translate(0, 86)">
                    <polygon id="Background" points="0 0 26 0 26 26 0 26"></polygon>
                    <g id="Vector" transform="translate(2.17, 2.17)" fill="#303030">
                        <path d="M10.552464,0.803854606 C5.14109656,0.952575289 0.8,5.38599898 0.8,10.8333 L-0.8,10.8333 C-0.8,4.40842 4.40842,-0.8 10.8333,-0.8 L11.1289556,-0.79631625 C17.4172288,-0.639453004 22.4667,4.50726431 22.4667,10.8333 L20.8667,10.8333 C20.8667,5.29208 16.3746,0.8 10.8333,0.8 Z M10.8333,20.8667 C5.29208,20.8667 0.8,16.3746 0.8,10.8333 C0.8,10.8333 -0.8,10.8333 -0.8,10.8333 C-0.8,17.2582 4.40842,22.4667 10.8333,22.4667 C10.8333,22.4667 10.8333,20.8667 10.8333,20.8667 Z M20.8667,10.8333 C20.8667,16.3746 16.3746,20.8667 10.8333,20.8667 C10.8333,20.8667 10.8333,22.4667 10.8333,22.4667 C17.2582,22.4667 22.4667,17.2582 22.4667,10.8333 C22.4667,10.8333 20.8667,10.8333 20.8667,10.8333 Z" id="Vector-border"></path>
                    </g>
                    <g id="Vector" transform="translate(8.67, 2.17)" fill="#303030">
                        <path d="M4.33416875,1.22565728 L4.13374525,1.47516379 C2.13388351,4.03843267 0.970526276,7.16370186 0.814460008,10.4240115 L0.8,10.832 L0.8,10.835 L0.799,10.842 L0.8,10.84 L0.814948061,11.252839 C0.978102023,14.616039 2.21313278,17.8350355 4.33250125,20.4409981 C6.45989331,17.8271412 7.69603999,14.5965306 7.85317506,11.2222705 L7.866,10.831 L7.866,10.818 L7.85162886,10.4119458 C7.68809881,7.04944747 6.45313469,3.83117722 4.33416875,1.22565728 Z M9.46649,10.85 C9.381694,14.92044 7.87044052,18.8272588 5.20396235,21.8921711 L4.92401,22.2062 C4.77244,22.3721 4.55807,22.4667 4.33333,22.4667 C4.1086,22.4667 3.89422,22.3721 3.74266,22.2062 C0.90216,19.0965 -0.7121,15.0608 -0.79982,10.85 L-0.8000025,10.83335 L-0.79983,10.8167 L-0.785979721,10.3962249 C-0.603120822,6.33781612 0.996833667,2.46653233 3.74266,-0.53954 C3.74266,-0.53954 4.0379975,-0.26977 4.333335,-6.66133815e-16 C4.6286725,-0.26977 4.92401,-0.53954 4.92401,-0.53954 C7.76452,2.57019 9.37877,6.60583 9.46649,10.8167 L9.46649,10.85 Z" id="Vector-border"></path>
                    </g>
                </g>
            </g>
        </g>
    </g>
</svg>