<?xml version="1.0" encoding="UTF-8"?>
<svg width="26px" height="26px" viewBox="0 0 26 26" version="1.1" xmlns="http://www.w3.org/2000/svg" xmlns:xlink="http://www.w3.org/1999/xlink">
    <title>Message / 26x26</title>
    <g id="Icons" stroke="none" stroke-width="1" fill="none" fill-rule="evenodd">
        <g transform="translate(-218, -312)" id="26x26-Icon">
            <g transform="translate(50, 170)">
                <g id="Message-/-26x26" transform="translate(168, 142)">
                    <polygon id="Background" points="0 0 26 0 26 26 0 26"></polygon>
                    <g id="Stroke" transform="translate(2.25, 2.25)" fill="#303030">
                        <path d="M18.9174,2.58001 L19.1430431,2.81195917 C23.4301266,7.34190383 23.3470271,14.4856814 18.9174,18.9158 L18.6795226,19.1471155 C15.1616404,22.4729357 10.0844045,23.1609435 5.90949134,21.2421758 L5.92161,21.2467 C5.29222212,20.9933048 4.9658163,20.8772532 4.69471015,20.876702 C4.17564,20.8798 3.21995,21.0845 2.3143,21.3209 C1.87899,21.4346 1.48164,21.5482 1.19287,21.6336 C1.04869,21.6762 0.93207,21.7116 0.8519,21.7362 C0.81183,21.7485 0.7809,21.7582 0.76022,21.7646 C0.74989,21.7678 0.74212,21.7703 0.73705,21.7719 C0.44538,21.8642 0.13414,21.7882 -0.07705,21.577 C-0.28824,21.3659 -0.3642,21.0546 -0.27405,20.7699 L-0.26461,20.7398 C-0.25817,20.7192 -0.24857,20.6883 -0.23627,20.6482 C-0.21167,20.5681 -0.17629,20.4514 -0.13374,20.3072 C-0.04852,20.0184 0.0649,19.6209 0.17804,19.1852 C0.41354,18.2784 0.61606,17.3222 0.61606,16.7985 C0.61606,16.5246 0.50481,16.2021 0.25348,15.5766 L0.261058292,15.5954297 C-1.70590296,11.3247184 -0.941295504,6.10593662 2.5844,2.581 C7.09061,-1.92686 14.411,-1.92686 18.9174,2.58001 Z M6.51918,19.7625 L6.53779125,19.7702375 L6.5562,19.7785 C6.5562,19.7785 6.53829067,19.8172253 6.502472,19.894676 L6.52356521,19.8490662 C6.54426044,19.8043169 6.5562,19.7785 6.5562,19.7785 C10.2438,21.4838 14.7462,20.8246 17.786,17.7844 L17.9938968,17.5702679 C21.6668595,13.6737488 21.6039964,7.52979745 17.786,3.71132 C13.9045,-0.17061 7.59733,-0.17061 3.71582,3.71233 C3.71582,3.71233 3.69272653,3.6892451 3.65313773,3.64967099 L3.62110295,3.61792289 C3.63580144,3.6326245 3.64905988,3.64588575 3.66067963,3.65750797 L3.71565,3.71249 C0.67583,6.75165 0.01574,11.2556 1.72183,14.9423 L1.730215,14.9610875 L1.73812,14.9801 C1.95999,15.5323 2.21606,16.1562 2.21606,16.7985 C2.21606,17.5585 1.95487,18.7087 1.72666,19.5874 C1.70439037,19.6731505 1.68213025,19.7574195 1.66007438,19.8397288 L1.68588819,19.8321722 L1.91019,19.7728 C2.78763,19.5438 3.93401,19.2812 4.68803,19.2767 C5.33743,19.2767 5.97465,19.5432 6.51918,19.7625 Z" id="Stroke-border"></path>
                    </g>
                </g>
            </g>
        </g>
    </g>
</svg>