<?xml version="1.0" encoding="UTF-8"?>
<svg width="26px" height="26px" viewBox="0 0 26 26" version="1.1" xmlns="http://www.w3.org/2000/svg" xmlns:xlink="http://www.w3.org/1999/xlink">
    <title>Add User / 26x26</title>
    <g id="Icons" stroke="none" stroke-width="1" fill="none" fill-rule="evenodd">
        <g transform="translate(-274, -480)" id="26x26-Icon">
            <g transform="translate(50, 170)">
                <g id="Add-User-/-26x26" transform="translate(224, 310)">
                    <polygon id="Background" points="0 0 26 0 26 26 0 26"></polygon>
                    <g id="Vector" transform="translate(1.08, 16.25)" fill="#FFFFFF">
                        <path d="M0.8,4.33333 L0.8,6.5 L0.7937669,6.60035073 C0.744401893,6.99481373 0.407843077,7.3 -9.99200722e-16,7.3 C-0.44183,7.3 -0.8,6.94183 -0.8,6.5 L-0.8,4.33333 L0.8,4.33333 Z M1.68716716,1.99190557 C1.11719195,2.63601166 0.8,3.46832385 0.8,4.33333 L-0.8,4.33333 C-0.8,2.97189 -0.25917,1.66621 0.70352,0.70352 L0.887973665,0.527988342 C1.82963781,-0.324661133 3.05698,-0.8 4.33333,-0.8 L4.33333,0.8 C3.39624,0.8 2.49752,1.17226 1.83489,1.83489 Z M11.9167,-0.8 L11.9167,0.8 L4.33333,0.8 L4.33333,-0.8 L11.9167,-0.8 Z M11.9167,-0.8 C13.2781,-0.8 14.5838,-0.25917 15.5465,0.70352 C16.5092,1.66621 17.05,2.97189 17.05,4.33333 L15.45,4.33333 C15.45,3.39624 15.0777,2.49752 14.4151,1.83489 L14.2580912,1.68716716 C13.6140112,1.11719195 12.7817154,0.8 11.9167,0.8 Z M15.45,4.33333 L17.05,4.33333 L17.05,6.5 L17.0437664,6.60035073 C16.9943976,6.99481373 16.6578154,7.3 16.25,7.3 C15.8082,7.3 15.45,6.94183 15.45,6.5 L15.45,4.33333 Z" id="Vector-border"></path>
                    </g>
                    <g id="Vector" transform="translate(4.88, 3.25)" fill="#FFFFFF">
                        <path d="M4.33333,0.8 C6.28474,0.8 7.86667,2.38193 7.86667,4.33333 C7.86667,4.33333 9.46667,4.33333 9.46667,4.33333 C9.46667,1.49827 7.16839,-0.8 4.33333,-0.8 C4.33333,-0.8 4.33333,0.8 4.33333,0.8 Z M0.8,4.33333 C0.8,2.38193 2.38193,0.8 4.33333,0.8 C4.33333,0.8 4.33333,-0.8 4.33333,-0.8 C1.49827,-0.8 -0.8,1.49827 -0.8,4.33333 C-0.8,4.33333 0.8,4.33333 0.8,4.33333 Z M4.33333,7.86667 C2.38193,7.86667 0.8,6.28474 0.8,4.33333 C0.8,4.33333 -0.8,4.33333 -0.8,4.33333 C-0.8,7.1684 1.49827,9.46667 4.33333,9.46667 C4.33333,9.46667 4.33333,7.86667 4.33333,7.86667 Z M7.86667,4.33333 C7.86667,6.28474 6.28474,7.86667 4.33333,7.86667 C4.33333,7.86667 4.33333,9.46667 4.33333,9.46667 C7.16839,9.46667 9.46667,7.1684 9.46667,4.33333 C9.46667,4.33333 7.86667,4.33333 7.86667,4.33333 Z" id="Vector-border"></path>
                    </g>
                </g>
            </g>
        </g>
    </g>
</svg>