<?xml version="1.0" encoding="UTF-8"?>
<svg width="26px" height="26px" viewBox="0 0 26 26" version="1.1" xmlns="http://www.w3.org/2000/svg" xmlns:xlink="http://www.w3.org/1999/xlink">
    <title>Phone / 26x26</title>
    <g id="Icons" stroke="none" stroke-width="1" fill="none" fill-rule="evenodd">
        <g transform="translate(-106, -256)" id="26x26-Icon">
            <g transform="translate(50, 170)">
                <g id="Phone-/-26x26" transform="translate(56, 86)">
                    <polygon id="Background" points="0 0 26 0 26 26 0 26"></polygon>
                    <g id="Vector" transform="translate(2.5, 2.5)" fill="#303030">
                        <path d="M0.86846,1.69076 C0.81046,1.86264 0.78896,2.04464 0.80531,2.22521 C1.13870664,5.34858107 2.20625787,8.35615139 3.92113,10.9981 L3.4498532,11.3064736 C3.708986,11.141488 3.92493,11.004 3.92493,11.004 C5.39127353,13.3069647 7.3189574,15.2803183 9.58498491,16.8009225 L10.0138,17.0807 C12.6572,18.7915 15.6588,19.8572 18.7838,20.1961 L18.7694,20.1947 C18.9516,20.2111 19.1351,20.1894 19.3083,20.1309 C19.4815,20.0725 19.6404,19.9786 19.775,19.8554 L19.8706484,19.7581781 C19.9609625,19.6562812 20.03495,19.5408 20.0897,19.4157 L20.1377781,19.2883594 C20.179075,19.1588813 20.199925,19.023525 20.1994,18.8871 L20.1996,15.7027 L20.1958519,15.5661347 C20.1741224,15.2946776 20.0677143,15.0353429 19.8896,14.8256 L19.7955729,14.725949 C19.5979857,14.5373531 19.3451286,14.4140714 19.0717,14.3755 C18.0054,14.2352 16.9515,13.9732 15.937,13.5954 L15.7920328,13.5501392 C15.5985,13.501816 15.3957,13.49796 15.1993,13.5398 C14.9537,13.592 14.7285,13.7134 14.5503,13.8893 L13.2125,15.2245 C12.958,15.4785 12.5653,15.5315 12.2525,15.354 L11.8602655,15.124707 C9.26730395,13.5639264 7.11652571,11.3634071 5.61704,8.73155 C5.61704,8.73155 5.64541143,8.71538551 5.69404816,8.68767496 L5.679599,8.6959073 L5.623991,8.7275897 C5.43849,8.41817 5.49172,8.02406 5.74702,7.76927 L7.08798,6.43097 C7.26104,6.25629 7.38232,6.03193 7.4345,5.78772 L7.45727928,5.64026296 C7.4763036,5.4427244 7.45003,5.24275 7.37959,5.05571 L7.22375612,4.61754752 C6.92771,3.74021755 6.71741,2.83596 6.59603,1.91742 C6.5526,1.61103 6.39532,1.32376 6.15407,1.1167 C5.91278,0.9096 5.604,0.79693 5.28524,0.80006 L2.11051,0.8001 C1.92817,0.80027 1.7479,0.83833 1.58121,0.91182 L1.45957422,0.973161563 C1.341475,1.04061938 1.2344275,1.1261025 1.14241,1.2267 L1.05600734,1.33162484 C1.00220453,1.40435453 0.956121094,1.48243359 0.918485781,1.56460078 L0.86846,1.69076 Z M8.21822,7.56346 L7.31781598,8.46139685 C8.62723406,10.5700073 10.4085937,12.3475493 12.5219687,13.6541221 L13.4232,12.7537 L13.5796123,12.6097451 C13.9479203,12.2948969 14.390025,12.076125 14.8662,11.9748 C15.4103,11.859 15.9764,11.9013 16.4972,12.0967 C17.3982755,12.4320419 18.3343004,12.6646922 19.2876,12.7902 L19.2774539,12.8672824 L19.267,12.941 L19.261,12.988 L19.255,13.036 L19.242,13.134 L19.24,13.146 L19.224,13.268 L19.21,13.377 L19.207,13.399 L19.201,13.449 L19.2162688,13.3488736 C19.259104,13.044688 19.2948,12.7912 19.2948,12.7912 C20.0016,12.8907 20.6474,13.246 21.1093,13.7901 C21.5712,14.3342 21.8168,15.029 21.7991,15.7424 L21.7993,18.8806 C21.801,19.2857 21.7178,19.6867 21.5553,20.0578 L21.4487672,20.2757176 C21.294924,20.559724 21.09454,20.81662 20.8555,21.0355 L20.6698848,21.1917064 C20.414272,21.389236 20.12712,21.54322 19.82,21.6469 C19.436,21.7765 19.0293,21.8246 18.6257,21.7882 L18.6113,21.7868 L18.0798311,21.7225353 C14.898095,21.2979875 11.8478568,20.1736158 9.15068,18.4279 C6.50663,16.7512 4.25953,14.5086 2.57528,11.8633 C0.72615,9.01461 -0.42703,5.76444 -0.78694,2.38199 L-0.78827,2.3695 C-0.82459,1.96724 -0.77669,1.56185 -0.64754,1.17915 C-0.51839,0.79646 -0.31085,0.44491 -0.03822,0.14684 L0.13228064,-0.024678 C0.3686192,-0.2434428 0.640072,-0.421862 0.9358,-0.55223 L1.16097832,-0.64052784 C1.4654548,-0.745564 1.785802,-0.799596 2.10901,-0.7999 L5.27738,-0.7999 L5.48058701,-0.79429405 C6.04101989,-0.75918005 6.57964221,-0.56287885 7.03107669,-0.22901925 L7.19615,-0.09742 C7.73195,0.36247 8.08223,1.00139 8.18123,1.70043 L8.12893754,1.714844 C8.16306726,1.71033371 8.18224,1.7078 8.18224,1.7078 C8.28704833,2.50094167 8.46650944,3.28211111 8.71803653,4.04099583 L8.8769,4.49176 C9.07296,5.01231 9.11542,5.57812 8.99918,6.12208 L8.94844498,6.32384309 C8.81353844,6.78917875 8.56398625,7.21451625 8.22138,7.56029 L8.166,7.505 L8.11,7.45 L7.955,7.296 L7.903,7.245 L7.86290651,7.20509985 C7.83083843,7.17332549 7.79773343,7.1405237 7.76408835,7.10718679 L7.6531,6.99722 L8.21822,7.56346 Z" id="Vector-border"></path>
                    </g>
                </g>
            </g>
        </g>
    </g>
</svg>