<?xml version="1.0" encoding="UTF-8"?>
<svg width="26px" height="26px" viewBox="0 0 26 26" version="1.1" xmlns="http://www.w3.org/2000/svg" xmlns:xlink="http://www.w3.org/1999/xlink">
    <title>Edit / 26x26</title>
    <g id="Icons" stroke="none" stroke-width="1" fill="none" fill-rule="evenodd">
        <g transform="translate(-274, -312)" id="26x26-Icon">
            <g transform="translate(50, 170)">
                <g id="Edit-/-26x26" transform="translate(224, 142)">
                    <polygon id="Background" points="0 0 26 0 26 26 0 26"></polygon>
                    <g id="Vector" transform="translate(4, 4.5)" fill="#FFFFFF">
                        <path d="M17.0637,4.16335 L4.56367,16.5748 L4.1479782,16.1561362 C4.23148252,16.2402375 4.30240605,16.3116681 4.3607488,16.370428 L4.4734828,16.483968 L4.49462043,16.5052568 L4.56367,16.5748 C4.4867725,16.65115 4.39544688,16.7107938 4.29543062,16.750525 L4.19274,16.7835 L0.19274,17.7764 L0.0752085423,17.7964382 C-0.16052551,17.8187327 -0.396598571,17.7353571 -0.56663,17.5647 C-0.76501,17.3657 -0.8444,17.0772 -0.77579,16.8047 C-0.77579,16.8047 -0.743098273,16.8129299 -0.67771482,16.8293898 L-0.77579,16.8047 L0.22421,12.833 L0.257823438,12.7297156 C0.298279375,12.6291875 0.3588925,12.537575 0.43633,12.4607 L12.9363,0.04922 L13.0905259,-0.0932614576 C13.6198347,-0.54807438 14.2972727,-0.8 15,-0.8 L15,0.8 C14.6477,0.8 14.311,0.939 14.0637,1.18461 L1.721,13.438 L1.101,15.902 L3.593,15.283 L15.9363,3.02797 C16.0588,2.90641 16.1556,2.7624 16.2215,2.60432 L16.2649375,2.48382875 C16.3022875,2.36154875 16.3213,2.2343525 16.3213,2.10629 C16.3213,1.93554 16.2875,1.76632 16.2215,1.60826 L16.1663625,1.49246906 C16.1055937,1.37957812 16.028175,1.27578 15.9363,1.18461 L15.8402609,1.09817891 C15.7401125,1.016585 15.628025,0.949775 15.5075,0.9002 C15.3468,0.8341 15.1743,0.8 15,0.8 L15,-0.8 C15.30624,-0.8 15.61024,-0.7520896 15.9008384,-0.65837824 L16.1161,-0.57954 C16.4701,-0.43394 16.7921,-0.22038 17.0637,0.04922 C17.3352,0.31884 17.5509,0.63923 17.6982,0.99224 C17.8454,1.34526 17.9213,1.72384 17.9213,2.10629 C17.9213,2.48874 17.8454,2.86731 17.6982,3.22034 L17.6017128,3.42808632 C17.462388,3.6994748 17.2809,3.947662 17.0637,4.16335 C17.0637,4.16335 17.0436573,4.14316547 17.0089167,4.10817894 L17.0637,4.16335 Z" id="Vector-border"></path>
                    </g>
                </g>
            </g>
        </g>
    </g>
</svg>