<?xml version="1.0" encoding="UTF-8"?>
<svg width="26px" height="26px" viewBox="0 0 26 26" version="1.1" xmlns="http://www.w3.org/2000/svg" xmlns:xlink="http://www.w3.org/1999/xlink">
    <title>Users / 26x26</title>
    <g id="Icons" stroke="none" stroke-width="1" fill="none" fill-rule="evenodd">
        <g transform="translate(-274, -256)" id="26x26-Icon">
            <g transform="translate(50, 170)">
                <g id="Users-/-26x26" transform="translate(224, 86)">
                    <polygon id="Background" points="0 0 26 0 26 26 0 26"></polygon>
                    <g id="Vector" transform="translate(21.67, 16.39)" fill="#303030">
                        <path d="M4.05,6.35917 L4.0437669,6.45951877 C3.99440189,6.85397521 3.65784308,7.15917 3.25,7.15917 C2.80817,7.15917 2.45,6.80099 2.45,6.35917 L2.45,4.1925 C2.44942,3.41022 2.18885,2.64971 1.70921,2.03097 L1.55966614,1.85071469 C1.0943953,1.326308 0.482218,0.950738 -0.2,0.77459 L-0.303282975,0.740389363 C-0.668123056,0.591475972 -0.875855,0.19215 -0.7746,-0.2 C-0.66414,-0.6278 -0.2278,-0.88506 0.2,-0.7746 C1.30127,-0.49025 2.27691,0.15179 2.97375,1.05071 C3.67059,1.94963 4.04915,3.05452 4.05,4.1919 L4.05,6.35917 Z" id="Vector-border"></path>
                    </g>
                    <g id="Vector" transform="translate(1.08, 16.25)" fill="#303030">
                        <path d="M13,-0.8 C14.3614,-0.8 15.6671,-0.25917 16.6298,0.70352 C17.5925,1.66621 18.1333,2.97189 18.1333,4.33333 L18.1333,6.5 L18.127068,6.60035073 C18.0777118,6.99481373 17.7412077,7.3 17.3333,7.3 C16.8915,7.3 16.5333,6.94183 16.5333,6.5 L16.5333,4.33333 C16.5333,3.39624 16.1611,2.49752 15.4984,1.83489 L15.3413912,1.68716716 C14.6973112,1.11719195 13.8650154,0.8 13,0.8 L4.33333,0.8 L4.11784958,0.806570892 C3.25937237,0.858988935 2.44654846,1.22323154 1.83489,1.83489 C1.17226,2.49752 0.8,3.39624 0.8,4.33333 L0.8,6.5 L0.7937669,6.60035073 C0.744401893,6.99481373 0.407843077,7.3 1.11022302e-16,7.3 C-0.44183,7.3 -0.8,6.94183 -0.8,6.5 L-0.8,4.33333 L-0.793691194,4.07878356 C-0.730748359,2.8100198 -0.199001875,1.60604187 0.70352,0.70352 C1.6662,-0.25917 2.97189,-0.8 4.33333,-0.8 L13,-0.8 Z" id="Vector-border"></path>
                    </g>
                    <g id="Vector" transform="translate(17.33, 3.39)" fill="#303030">
                        <path d="M4.0585,4.19792 C4.0585,5.33774 3.67914,6.44514 2.98023,7.34553 L2.81404875,7.54868475 C2.13001817,8.34259994 1.21769154,8.90985769 0.19843,9.17083 L0.0914558044,9.19068095 C-0.299961181,9.23621694 -0.6745425,8.98661167 -0.775,8.59426 C-0.88459,8.16624 -0.62645,7.73042 -0.19843,7.62083 L0.0268814,7.55509709 C0.6944042,7.3360487 1.283357,6.922235 1.71632,6.36446 L1.85399862,6.17437805 C2.2469928,5.5920308 2.4585,4.904015 2.4585,4.19792 L4.0585,4.19792 Z M-0.301781337,0.740999346 C-0.666919653,0.5928275 -0.8754575,0.193921667 -0.775,-0.19843 C-0.66541,-0.62645 -0.22959,-0.88459 0.19843,-0.775 C1.30263,-0.49228 2.28133,0.1499 2.98023,1.0503 C3.67914,1.9507 4.0585,3.0581 4.0585,4.19792 L2.4585,4.19792 C2.4585,3.41337 2.19738,2.65113 1.71632,2.03137 L1.5663278,1.85084659 C1.0996562,1.3256902 0.485597,0.95014 -0.19843,0.775 Z" id="Vector-border"></path>
                    </g>
                    <g id="Vector" transform="translate(5.42, 3.25)" fill="#303030">
                        <path d="M4.11633691,9.46216662 C1.38192103,9.34845707 -0.8,7.0957059 -0.8,4.33333 L-0.795496618,4.11633691 C-0.681787081,1.38192103 1.57096385,-0.8 4.33333,-0.8 L4.55032384,-0.795496618 C7.28474897,-0.681787081 9.46667,1.57096385 9.46667,4.33333 L9.46216662,4.55032384 C9.34845707,7.28474897 7.0957059,9.46667 4.33333,9.46667 Z M4.52719449,7.86144181 C6.3884443,7.76079747 7.86667,6.219693 7.86667,4.33333 L7.86144181,4.13946647 C7.76079747,2.2782257 6.219693,0.8 4.33333,0.8 L4.13946647,0.805228194 C2.2782257,0.905872522 0.8,2.44697667 0.8,4.33333 L0.805228194,4.52719449 C0.905872522,6.3884443 2.44697667,7.86667 4.33333,7.86667 Z" id="Vector-border"></path>
                    </g>
                </g>
            </g>
        </g>
    </g>
</svg>